<?xml version="1.0" encoding="utf-8"?>
<!-- Uploaded to SVGRepo https://www.svgrepo.com -->
<svg version="1.2" baseProfile="tiny" id="Layer_1" xmlns="http://www.w3.org/2000/svg" xmlns:xlink="http://www.w3.org/1999/xlink"
	 x="0px" y="0px" viewBox="-351 153 256 256" xml:space="preserve">
<g id="Layer_1_1_">
</g>
<g id="_x31_">
	<path d="M-235.1,389.1c11.5,0,23.2-1.8,34.1-5.8c-42.3-14.5-72.9-54.3-72.9-101.2c0-47.4,30.6-87.4,72.9-101.2
		c-10.4-3.5-22-5.8-34.1-5.8c-59,0-107,48-107,107C-342.1,341.6-294,389.1-235.1,389.1z"/>
	<polygon points="-177.8,257.2 -162.7,249.1 -147.7,257.2 -150.6,240.4 -138.4,228.9 -155.2,226 -162.7,211 -170.3,226 
		-187.1,228.9 -174.9,240.4 	"/>
	<polygon points="-129.2,314.5 -118.8,309.2 -108.4,314.5 -110.1,302.8 -102,294.8 -113.5,293.1 -118.8,282.6 -124,293.1 
		-135.6,294.8 -127.5,302.8 	"/>
	<polygon points="-200.4,343.4 -202.7,355 -191.7,349.7 -181.3,355 -183,343.4 -174.3,334.7 -186.4,332.9 -191.7,322 -197.4,332.9 
		-209,334.7 	"/>
</g>
</svg>
