<?xml version="1.0" encoding="iso-8859-1"?>
<!-- Generator: Adobe Illustrator 19.0.0, SVG Export Plug-In . SVG Version: 6.00 Build 0)  -->
<svg version="1.1" id="Layer_1" xmlns="http://www.w3.org/2000/svg" xmlns:xlink="http://www.w3.org/1999/xlink" x="0px" y="0px"
	 viewBox="0 0 512 512" style="enable-background:new 0 0 512 512;" xml:space="preserve">
<g transform="translate(1 1)">
	<path style="fill:#FFE100;" d="M502.467,255c0,136.533-110.933,247.467-247.467,247.467S7.533,391.533,7.533,255
		S118.467,7.533,255,7.533S502.467,118.467,502.467,255"/>
	<path style="fill:#FFA800;" d="M255,7.533c-4.267,0-8.533,0-12.8,0C372.76,14.36,476.867,122.733,476.867,255
		S372.76,495.64,242.2,502.467c4.267,0,8.533,0,12.8,0c136.533,0,247.467-110.933,247.467-247.467S391.533,7.533,255,7.533"/>
	<path style="fill:#FFFFFF;" d="M255,7.533c4.267,0,8.533,0,12.8,0C137.24,14.36,33.133,122.733,33.133,255
		S137.24,495.64,267.8,502.467c-4.267,0-8.533,0-12.8,0C118.467,502.467,7.533,391.533,7.533,255S118.467,7.533,255,7.533"/>
	<g>
		<path style="fill:#63D3FD;" d="M383,161.133c0,18.773-15.36,34.133-34.133,34.133s-34.133-15.36-34.133-34.133
			S330.093,127,348.867,127C367.64,127,383,142.36,383,161.133"/>
		<path style="fill:#63D3FD;" d="M127,161.133c0,18.773,15.36,34.133,34.133,34.133s34.133-15.36,34.133-34.133
			S179.907,127,161.133,127S127,142.36,127,161.133"/>
	</g>
	<path d="M340.333,374.467c-5.12,0-8.533-3.413-8.533-8.533c0-42.667-34.133-76.8-76.8-76.8s-76.8,34.133-76.8,76.8
		c0,5.12-3.413,8.533-8.533,8.533c-5.12,0-8.533-3.413-8.533-8.533c0-52.053,41.813-93.867,93.867-93.867
		s93.867,41.813,93.867,93.867C348.867,371.053,345.453,374.467,340.333,374.467z"/>
	<path d="M255,511C114.2,511-1,395.8-1,255S114.2-1,255-1s256,115.2,256,256S395.8,511,255,511z M255,16.067
		C123.587,16.067,16.067,123.587,16.067,255S123.587,493.933,255,493.933S493.933,386.413,493.933,255S386.413,16.067,255,16.067z"
		/>
	<path d="M348.867,203.8c-23.893,0-42.667-18.773-42.667-42.667s18.773-42.667,42.667-42.667c23.893,0,42.667,18.773,42.667,42.667
		S372.76,203.8,348.867,203.8z M348.867,135.533c-14.507,0-25.6,11.093-25.6,25.6s11.093,25.6,25.6,25.6
		c14.507,0,25.6-11.093,25.6-25.6C374.467,146.627,363.373,135.533,348.867,135.533z"/>
	<path d="M297.667,172.227c-2.56,0-4.267-0.853-5.973-2.56c-3.413-3.413-3.413-8.533,0-11.947l60.587-60.587
		c3.413-3.413,8.533-3.413,11.947,0c3.413,3.413,3.413,8.533,0,11.947l-60.587,60.587
		C301.933,171.373,300.227,172.227,297.667,172.227z"/>
	<path d="M161.133,203.8c-23.893,0-42.667-18.773-42.667-42.667s18.773-42.667,42.667-42.667S203.8,137.24,203.8,161.133
		S185.027,203.8,161.133,203.8z M161.133,135.533c-14.507,0-25.6,11.093-25.6,25.6s11.093,25.6,25.6,25.6s25.6-11.093,25.6-25.6
		C186.733,146.627,175.64,135.533,161.133,135.533z"/>
	<path d="M212.333,172.227c-2.56,0-4.267-0.853-5.973-2.56l-60.587-60.587c-3.413-3.413-3.413-8.533,0-11.947s8.533-3.413,11.947,0
		l60.587,60.587c3.413,3.413,3.413,8.533,0,11.947C216.6,172.227,214.893,172.227,212.333,172.227z"/>
</g>
<g>
</g>
<g>
</g>
<g>
</g>
<g>
</g>
<g>
</g>
<g>
</g>
<g>
</g>
<g>
</g>
<g>
</g>
<g>
</g>
<g>
</g>
<g>
</g>
<g>
</g>
<g>
</g>
<g>
</g>
</svg>
