<?xml version="1.0" standalone="no"?>
<!DOCTYPE svg PUBLIC "-//W3C//DTD SVG 20010904//EN"
 "http://www.w3.org/TR/2001/REC-SVG-20010904/DTD/svg10.dtd">
<svg version="1.0" xmlns="http://www.w3.org/2000/svg"
 width="512.000000pt" height="512.000000pt" viewBox="0 0 512.000000 512.000000"
 preserveAspectRatio="xMidYMid meet">

<g transform="translate(0.000000,512.000000) scale(0.100000,-0.100000)"
fill="#000000" stroke="none">
<path d="M720 2560 l0 -2400 1840 0 1840 0 0 2400 0 2400 -1840 0 -1840 0 0
-2400z m3520 0 l0 -2240 -1680 0 -1680 0 0 2240 0 2240 1680 0 1680 0 0 -2240z"/>
<path d="M1040 4560 l0 -80 80 0 80 0 0 80 0 80 -80 0 -80 0 0 -80z"/>
<path d="M3600 4560 l0 -80 160 0 160 0 0 -240 0 -240 80 0 80 0 0 320 0 320
-240 0 -240 0 0 -80z"/>
<path d="M1440 3320 l0 -1160 -200 0 -200 0 0 -80 0 -80 520 0 520 0 0 80 0
80 -240 0 -240 0 0 863 0 862 218 218 217 217 383 0 382 0 0 -84 0 -85 -53
-24 c-66 -30 -118 -81 -154 -150 -23 -45 -27 -64 -27 -137 0 -70 4 -93 23
-130 36 -68 62 -98 110 -130 43 -29 43 -30 20 -39 -49 -19 -264 -104 -266
-106 -4 -3 48 -129 56 -138 5 -4 66 15 137 44 71 28 135 53 142 56 9 4 12 -32
12 -158 l0 -164 -147 -147 -148 -148 58 -57 57 -58 130 130 130 130 130 -130
130 -130 57 58 58 57 -148 148 -147 147 0 164 c0 126 3 162 13 158 6 -3 70
-28 141 -56 71 -29 132 -48 137 -44 8 9 60 135 56 138 -2 2 -217 87 -266 106
-23 9 -22 10 22 40 87 57 145 181 134 286 -12 113 -83 214 -184 260 l-53 24 0
165 0 164 -760 0 -760 0 0 -1160z m360 997 c0 -1 -45 -47 -100 -102 l-100
-100 0 103 0 102 100 0 c55 0 100 -1 100 -3z m1143 -331 c103 -43 128 -177 48
-257 -112 -113 -296 -12 -267 146 18 94 128 150 219 111z"/>
<path d="M1040 4240 l0 -80 80 0 80 0 0 80 0 80 -80 0 -80 0 0 -80z"/>
<path d="M3920 3760 l0 -80 80 0 80 0 0 80 0 80 -80 0 -80 0 0 -80z"/>
<path d="M1040 1520 l0 -240 240 0 240 0 0 240 0 240 -240 0 -240 0 0 -240z
m320 0 l0 -80 -80 0 -80 0 0 80 0 80 80 0 80 0 0 -80z"/>
<path d="M2320 1520 l0 -240 240 0 240 0 0 240 0 240 -240 0 -240 0 0 -240z
m320 0 l0 -80 -80 0 -80 0 0 80 0 80 80 0 80 0 0 -80z"/>
<path d="M2960 1520 l0 -240 240 0 240 0 0 240 0 240 -240 0 -240 0 0 -240z
m320 0 l0 -80 -80 0 -80 0 0 80 0 80 80 0 80 0 0 -80z"/>
<path d="M1680 1360 l0 -80 240 0 240 0 0 80 0 80 -240 0 -240 0 0 -80z"/>
<path d="M3600 1360 l0 -80 240 0 240 0 0 80 0 80 -240 0 -240 0 0 -80z"/>
<path d="M1680 880 l0 -240 240 0 240 0 0 240 0 240 -240 0 -240 0 0 -240z
m320 0 l0 -80 -80 0 -80 0 0 80 0 80 80 0 80 0 0 -80z"/>
<path d="M2320 880 l0 -240 240 0 240 0 0 240 0 240 -240 0 -240 0 0 -240z
m320 0 l0 -80 -80 0 -80 0 0 80 0 80 80 0 80 0 0 -80z"/>
<path d="M1040 720 l0 -80 240 0 240 0 0 80 0 80 -240 0 -240 0 0 -80z"/>
<path d="M2960 720 l0 -80 240 0 240 0 0 80 0 80 -240 0 -240 0 0 -80z"/>
<path d="M3600 720 l0 -80 240 0 240 0 0 80 0 80 -240 0 -240 0 0 -80z"/>
</g>
</svg>
