<?xml version="1.0" encoding="iso-8859-1"?>
<!-- Generator: Adobe Illustrator 19.0.0, SVG Export Plug-In . SVG Version: 6.00 Build 0)  -->
<svg version="1.1" id="Layer_1" xmlns="http://www.w3.org/2000/svg" xmlns:xlink="http://www.w3.org/1999/xlink" x="0px" y="0px"
	 viewBox="0 0 392.598 392.598" style="enable-background:new 0 0 392.598 392.598;" xml:space="preserve">
<g>
	<g>
		<path d="M321.907,48.614H109.802V10.925C109.802,4.913,104.954,0,98.877,0C92.8,0,87.952,4.848,87.952,10.925v37.689H70.691
			c-6.012,0-10.925,4.848-10.925,10.925s4.849,10.925,10.925,10.925h17.131v311.208c0,6.012,4.848,10.925,10.925,10.925
			s10.99-4.849,10.99-10.925V132.59l61.996-61.996h71.305v34.715h-7.951c-6.012,0-10.925,4.848-10.925,10.925v40.275
			c0,2.327,0.776,4.59,2.004,6.335c-2.069,13.705-7.434,27.345-15.838,39.951c-22.174,31.871,0.517,78.998,41.374,80.614
			c40.21,1.745,69.172-42.279,46.028-80.032c-8.275-12.8-13.705-26.828-15.903-40.727c1.228-1.745,1.939-3.879,1.939-6.206V116.17
			c0-6.012-4.849-10.925-10.925-10.925h-7.951v-34.78h57.018c6.012,0,10.925-4.848,10.925-10.925S327.984,48.614,321.907,48.614z
			 M109.802,101.754V70.529h31.16L109.802,101.754z M246.077,127.095h15.903v18.36h-15.903V127.095z M279.24,215.143
			c14.287,24.113-5.495,47.58-26.699,46.481c-25.083-2.133-36.331-28.962-23.984-46.933c9.891-14.869,16.356-30.966,19.006-47.386
			h12.8C263.208,183.79,269.608,200.145,279.24,215.143z"/>
	</g>
</g>
<g>
</g>
<g>
</g>
<g>
</g>
<g>
</g>
<g>
</g>
<g>
</g>
<g>
</g>
<g>
</g>
<g>
</g>
<g>
</g>
<g>
</g>
<g>
</g>
<g>
</g>
<g>
</g>
<g>
</g>
</svg>
