<?xml version="1.0" encoding="iso-8859-1"?>
<!-- Generator: Adobe Illustrator 19.0.0, SVG Export Plug-In . SVG Version: 6.00 Build 0)  -->
<svg version="1.1" id="Layer_1" xmlns="http://www.w3.org/2000/svg" xmlns:xlink="http://www.w3.org/1999/xlink" x="0px" y="0px"
	 viewBox="0 0 512 512" style="enable-background:new 0 0 512 512;" xml:space="preserve">
<g transform="translate(1 1)">
	<path style="fill:#FFE100;" d="M502.467,255c0,136.533-110.933,247.467-247.467,247.467S7.533,391.533,7.533,255
		S118.467,7.533,255,7.533S502.467,118.467,502.467,255"/>
	<path style="fill:#FFA800;" d="M255,7.533c-4.267,0-8.533,0-12.8,0C372.76,14.36,476.867,122.733,476.867,255
		S372.76,495.64,242.2,502.467c4.267,0,8.533,0,12.8,0c136.533,0,247.467-110.933,247.467-247.467S391.533,7.533,255,7.533"/>
	<path style="fill:#FFFFFF;" d="M255,7.533c4.267,0,8.533,0,12.8,0C137.24,14.36,33.133,122.733,33.133,255
		S137.24,495.64,267.8,502.467c-4.267,0-8.533,0-12.8,0C118.467,502.467,7.533,391.533,7.533,255S118.467,7.533,255,7.533"/>
	<path style="fill:#63D3FD;" d="M186.733,144.067c0,18.773-15.36,34.133-34.133,34.133s-34.133-15.36-34.133-34.133
		s15.36-34.133,34.133-34.133S186.733,125.293,186.733,144.067"/>
	<path style="fill:#E4667F;" d="M180.76,339.48l-22.187,22.187c-17.067,17.067-17.067,43.52,0,60.587l0,0
		c17.067,17.067,43.52,17.067,60.587,0l58.027-58.027l-56.32,1.707L180.76,339.48z"/>
	<path d="M255,511C114.2,511-1,395.8-1,255S114.2-1,255-1s256,115.2,256,256S395.8,511,255,511z M255,16.067
		C123.587,16.067,16.067,123.587,16.067,255S123.587,493.933,255,493.933S493.933,386.413,493.933,255S386.413,16.067,255,16.067z"
		/>
	<path d="M314.733,186.733c-0.853,0-1.707,0-2.56-0.853c-3.413-0.853-5.12-4.267-5.973-7.68c-1.707-33.28,26.453-66.56,58.88-69.12
		c4.267,0,8.533,3.413,9.387,7.68c0.853,4.267-3.413,10.24-8.533,10.24c-17.067,0.853-33.28,15.36-40.107,32.427
		c23.04-10.24,52.907-3.413,70.827,11.947c3.413,3.413,4.267,8.533,0.853,11.947c-3.413,3.413-8.533,4.267-11.947,0.853
		c-17.067-15.36-48.64-18.773-64.853-0.853C319.853,185.88,317.293,186.733,314.733,186.733z"/>
	<path d="M152.6,186.733c-23.893,0-42.667-18.773-42.667-42.667S128.707,101.4,152.6,101.4s42.667,18.773,42.667,42.667
		S176.493,186.733,152.6,186.733z M152.6,118.467c-14.507,0-25.6,11.093-25.6,25.6s11.093,25.6,25.6,25.6s25.6-11.093,25.6-25.6
		C178.2,129.56,167.107,118.467,152.6,118.467z"/>
	<path d="M255,374.467c-45.227,0-86.187-23.893-110.08-64c-2.56-4.267-0.853-9.387,3.413-11.947
		c4.267-2.56,9.387-0.853,11.947,3.413C179.907,336.92,215.747,357.4,255,357.4s75.093-20.48,94.72-55.467
		c2.56-4.267,7.68-5.12,11.947-3.413c4.267,2.56,5.12,7.68,3.413,11.947C341.187,350.573,300.227,374.467,255,374.467z"/>
	<path d="M188.44,442.733c-12.8,0-26.453-5.12-35.84-15.36c-19.627-19.627-19.627-52.053,0-72.533l22.187-22.187
		c3.413-3.413,8.533-3.413,11.947,0c3.413,3.413,3.413,8.533,0,11.947l-22.187,22.187c-13.653,13.653-13.653,34.987,0,48.64
		c13.653,13.653,34.987,13.653,48.64,0l58.027-58.027c3.413-3.413,8.533-3.413,11.947,0c3.413,3.413,3.413,8.533,0,11.947
		l-58.027,58.027C214.893,437.613,202.093,442.733,188.44,442.733z"/>
</g>
<g>
</g>
<g>
</g>
<g>
</g>
<g>
</g>
<g>
</g>
<g>
</g>
<g>
</g>
<g>
</g>
<g>
</g>
<g>
</g>
<g>
</g>
<g>
</g>
<g>
</g>
<g>
</g>
<g>
</g>
</svg>
